<svg width="47" height="51" viewBox="0 0 47 51" fill="none" xmlns="http://www.w3.org/2000/svg">
<path d="M7.18959 14.056H7.18564C6.96672 14.0555 6.74988 14.0996 6.54764 14.1858C6.34539 14.272 6.16175 14.3986 6.00731 14.5582C5.84986 14.719 5.72502 14.9104 5.64004 15.1212C5.55507 15.332 5.51165 15.5581 5.51231 15.7864V41.7338C5.51231 42.6853 6.26763 43.4613 7.19624 43.4638C11.111 43.4734 17.6698 44.3128 22.1945 49.1845V22.0298C22.1945 21.7072 22.1144 21.4042 21.9633 21.1535C18.2497 15.0003 11.1132 14.0654 7.18959 14.056ZM41.4878 41.7338V15.7862C41.4878 15.3219 41.312 14.8857 40.9928 14.5581C40.8384 14.3985 40.6548 14.2719 40.4526 14.1857C40.2504 14.0995 40.0336 14.0554 39.8147 14.0558H39.8106C35.8871 14.0654 28.7506 15.0003 25.0368 21.1535C24.8857 21.4042 24.8058 21.7072 24.8058 22.0298V49.1844C29.3305 44.3127 35.8893 43.4732 39.8041 43.4636C40.7325 43.4612 41.4878 42.6852 41.4878 41.7338Z" fill="#B51A1A"/>
<path d="M45.3184 20.0398H44.099V41.7338C44.099 44.1632 42.1751 46.1442 39.8102 46.1502C36.4897 46.1584 31.0146 46.8264 27.137 50.6023C33.8433 48.9129 40.9129 50.0111 44.942 50.9558C45.1888 51.0144 45.4453 51.0147 45.6922 50.9568C45.9392 50.8989 46.1702 50.7842 46.3679 50.6214C46.5656 50.4598 46.7252 50.2542 46.8347 50.0202C46.9441 49.7861 47.0006 49.5296 47 49.2698V21.7699C47.0002 20.8159 46.2456 20.0398 45.3184 20.0398ZM2.90103 41.7338V20.0398H1.68156C0.754535 20.0398 0 20.8159 0 21.7699V49.2693C0 49.7985 0.230411 50.2912 0.632049 50.6209C0.82976 50.7838 1.06077 50.8985 1.30774 50.9564C1.55472 51.0144 1.81123 51.014 2.05804 50.9553C6.08707 50.0105 13.1569 48.9124 19.8629 50.6018C15.9854 46.8261 10.5103 46.1582 7.18976 46.1501C4.82503 46.1442 2.90103 44.1632 2.90103 41.7338Z" fill="#B51A1A"/>
<path d="M33.1132 28.5069L31.7062 17.6172H31.7453C32.1585 17.6172 32.4935 17.2716 32.4935 16.8452V1.14763C32.4935 0.87638 32.3561 0.626042 32.1315 0.486387C32.0211 0.417665 31.8955 0.379548 31.7667 0.375735C31.6378 0.371922 31.5103 0.402544 31.3963 0.464627C28.479 2.05305 26.6528 5.17624 26.6528 8.58095V15.1998C26.6528 16.5347 27.7018 17.6171 28.9956 17.6171H29.1729L27.7659 28.5069C27.7154 28.8999 27.7466 29.2995 27.8577 29.6791C27.9687 30.0587 28.1569 30.4094 28.4098 30.7079C28.6631 31.0062 28.9752 31.2453 29.3252 31.4091C29.6753 31.5729 30.0552 31.6578 30.4396 31.6579C30.8239 31.6578 31.2038 31.5729 31.5539 31.4091C31.9039 31.2453 32.216 31.0062 32.4694 30.7079C32.7222 30.4094 32.9104 30.0587 33.0215 29.6791C33.1325 29.2996 33.1638 28.8999 33.1132 28.5069ZM21.3899 0C20.8223 0 20.3629 0.473981 20.3629 1.05962V6.97889H19.336V1.05962C19.336 0.473981 18.8767 0 18.3091 0C17.7415 0 17.2822 0.473981 17.2822 1.05962V6.97889H16.2553V1.05962C16.2552 0.473981 15.7959 0 15.2284 0C14.6607 0 14.2014 0.473981 14.2014 1.05962V10.6237C14.2014 12.1956 15.4359 13.4694 16.9592 13.4694H17.1869L15.5684 28.4986C15.5258 28.8963 15.5649 29.2987 15.6831 29.6797C15.8012 30.0608 15.9958 30.4119 16.2542 30.7101C16.5129 31.0083 16.8296 31.2469 17.1837 31.4102C17.5378 31.5735 17.9213 31.6579 18.3091 31.658C18.697 31.6579 19.0805 31.5735 19.4346 31.4102C19.7886 31.2469 20.1054 31.0083 20.3641 30.7101C20.6225 30.4119 20.8171 30.0608 20.9353 29.6798C21.0534 29.2987 21.0925 28.8963 21.0499 28.4986L19.4314 13.4695H19.6591C21.1823 13.4695 22.4168 12.1957 22.4168 10.6237V1.05962C22.4168 0.473981 21.9575 0 21.3899 0Z" fill="#3C0101"/>
</svg>
