<svg width="20" height="20" viewBox="0 0 20 20" fill="none" xmlns="http://www.w3.org/2000/svg">
<path d="M17.4066 5.63782C16.4075 2.28368 13.3388 0 9.84196 0C6.34508 0 3.27639 2.28368 2.27728 5.63782C1.92046 6.92239 1.92046 8.27832 2.20592 9.63426C2.70547 11.2756 4.13277 14.1302 7.84374 18.5549C7.98647 18.769 8.20057 18.9831 8.3433 19.1258C8.55739 19.4112 8.84285 19.6253 9.12831 19.8394C9.5565 20.0535 10.0561 20.0535 10.4842 19.8394C10.7697 19.6253 11.0552 19.4112 11.2693 19.1258C11.412 18.9117 11.6261 18.6976 11.7688 18.5549C15.4798 14.2016 16.9071 11.2756 17.3353 9.63426C17.7635 8.27832 17.7635 6.92239 17.4066 5.63782ZM13.4102 7.85013C13.4102 9.84835 11.8402 11.4184 9.84196 11.4184C7.84374 11.4184 6.27372 9.84835 6.27372 7.85013C6.27372 5.85192 7.84374 4.28189 9.84196 4.28189C11.8402 4.28189 13.4102 5.85192 13.4102 7.85013Z" fill="black"/>
</svg>
